<svg xmlns="http://www.w3.org/2000/svg" xmlns:xlink="http://www.w3.org/1999/xlink" xmlns:inkscape="http://www.inkscape.org/namespaces/inkscape" version="1.1" width="255.5" height="211" viewBox="0 0 255.5 211">
<defs>
<g id="mask_1_contents">
<rect x="0" y="0" width="100%" height="100%" fill-opacity="0"/>
<g>
<clipPath id="clip_2">
<path transform="matrix(1,0,0,-1,0,211)" d="M0 0H255.5V211H0Z"/>
</clipPath>
<g clip-path="url(#clip_2)">
<path transform="matrix(1,0,0,-1,0,233.5)" d="M0 256H256V0H0V256Z"/>
</g>
</g>
</g>
<mask id="mask_1" mask-type="alpha">
<use xlink:href="#mask_1_contents"/>
</mask>
<clipPath id="clip_3">
<path transform="matrix(1,0,0,-1,0,211)" d="M0 0H255.5V211H0Z"/>
</clipPath>
</defs>
<g>
<g mask="url(#mask_1)">
<g>
<g clip-path="url(#clip_3)">
<path transform="matrix(1,0,0,-1,5,47.688005)" d="M0 16.5C-3.03757 16.5-5.5 14.0376-5.5 11-5.5 7.96243-3.03757 5.5 0 5.5V11 16.5ZM21.8219 5.5C24.8594 5.5 27.3219 7.96243 27.3219 11 27.3219 14.0376 24.8594 16.5 21.8219 16.5V11 5.5ZM0 11V5.5H21.8219V11 16.5H0V11Z" fill="#ffffff"/>
<path transform="matrix(1,0,0,-1,27.3179,89.767)" d="M0 84.2673V89.7673H-5.5V84.2673H0ZM0 11H-5.5V5.50001H0V11ZM94.7267 11V5.50001H100.227V11H94.7267ZM94.7267 60.0099H100.227V62.8998L97.8469 64.5392 94.7267 60.0099ZM59.5142 84.2673 62.6343 88.7966 61.2253 89.7673H59.5142V84.2673ZM0 84.2673H-5.5V11H0 5.5V84.2673H0ZM0 11V5.50001H94.7267V11 16.5H0V11ZM94.7267 11H100.227V60.0099H94.7267 89.2267V11H94.7267ZM94.7267 60.0099 97.8469 64.5392 62.6343 88.7966 59.5142 84.2673 56.394 79.738 91.6066 55.4806 94.7267 60.0099ZM59.5142 84.2673V89.7673H0V84.2673 78.7673H59.5142V84.2673Z" fill="#ffffff"/>
<path transform="matrix(1,0,0,-1,127.004,47.688005)" d="M112.581 5.5C115.619 5.5 118.081 7.96243 118.081 11 118.081 14.0376 115.619 16.5 112.581 16.5V11 5.5ZM0 16.5C-3.03757 16.5-5.5 14.0376-5.5 11-5.5 7.96243-3.03757 5.5 0 5.5V11 16.5ZM112.581 11V16.5H0V11 5.5H112.581V11Z" fill="#ffffff"/>
<path transform="matrix(1,0,0,-1,153.786,163.5732)" d="M48.1518 126.885C48.1518 129.923 45.6894 132.385 42.6518 132.385 39.6143 132.385 37.1518 129.923 37.1518 126.885H42.6518 48.1518ZM42.6518 54.1128 46.5374 50.2202 48.1518 51.8317V54.1128H42.6518ZM-3.88555 15.4312C-6.03538 13.2852-6.03855 9.80283-3.89262 7.65299-1.7467 5.50315 1.73571 5.49998 3.88555 7.64591L0 11.5385-3.88555 15.4312ZM42.6518 126.885H37.1518V54.1128H42.6518 48.1518V126.885H42.6518ZM42.6518 54.1128 38.7663 58.0054-3.88555 15.4312 0 11.5385 3.88555 7.64591 46.5374 50.2202 42.6518 54.1128Z" fill="#ffffff"/>
<path transform="matrix(1,0,0,-1,196.437,164.186)" d="M3.97819 58.0285C1.88068 60.2256-1.6008 60.3063-3.79789 58.2088-5.99499 56.1113-6.07571 52.6298-3.97819 50.4327L0 54.2306 3.97819 58.0285ZM36.1939 8.35349C38.2914 6.15639 41.7729 6.07567 43.97 8.17319 46.167 10.2707 46.2478 13.7522 44.1503 15.9493L40.1721 12.1514 36.1939 8.35349ZM0 54.2306-3.97819 50.4327 36.1939 8.35349 40.1721 12.1514 44.1503 15.9493 3.97819 58.0285 0 54.2306Z" fill="#ffffff"/>
<path transform="matrix(1,0,0,-1,143.866,164.5198)" d="M106.134 5.5C109.171 5.5 111.634 7.96243 111.634 11 111.634 14.0376 109.171 16.5 106.134 16.5V11 5.5ZM0 16.5C-3.03757 16.5-5.5 14.0376-5.5 11-5.5 7.96243-3.03757 5.5 0 5.5V11 16.5ZM106.134 11V16.5H0V11 5.5H106.134V11Z" fill="#ffffff"/>
<path transform="matrix(1,0,0,-1,90.3037,216.5)" d="M5.5 133.772C5.5 136.81 3.03757 139.272 0 139.272-3.03757 139.272-5.5 136.81-5.5 133.772H0 5.5ZM-5.5 11C-5.5 7.96243-3.03757 5.5 0 5.5 3.03757 5.5 5.5 7.96243 5.5 11H0-5.5ZM0 133.772H-5.5V11H0 5.5V133.772H0Z" fill="#ffffff"/>
<path transform="matrix(1,0,0,-1,58.0669,216.5)" d="M5.5 133.772C5.5 136.81 3.03757 139.272 0 139.272-3.03757 139.272-5.5 136.81-5.5 133.772H0 5.5ZM-5.5 11C-5.5 7.96243-3.03757 5.5 0 5.5 3.03757 5.5 5.5 7.96243 5.5 11H0-5.5ZM0 133.772H-5.5V11H0 5.5V133.772H0Z" fill="#ffffff"/>
<path transform="matrix(1,0,0,-1,25.8301,216.5)" d="M0 16.5C-3.03757 16.5-5.5 14.0376-5.5 11-5.5 7.96243-3.03757 5.5 0 5.5V11 16.5ZM96.7105 5.5C99.7481 5.5 102.211 7.96243 102.211 11 102.211 14.0376 99.7481 16.5 96.7105 16.5V11 5.5ZM0 11V5.5H96.7105V11 16.5H0V11Z" fill="#ffffff"/>
<path transform="matrix(1,0,0,-1,59.0586,166.9821)" d="M27.5222 8.01822C29.982 6.23609 33.4208 6.78549 35.2029 9.24534 36.9851 11.7052 36.4357 15.144 33.9758 16.9261L30.749 12.4722 27.5222 8.01822ZM3.22682 39.2033C.766977 40.9855-2.67182 40.4361-4.45394 37.9762-6.23607 35.5164-5.68667 32.0776-3.22682 30.2954L0 34.7494 3.22682 39.2033ZM30.749 12.4722 33.9758 16.9261 3.22682 39.2033 0 34.7494-3.22682 30.2954 27.5222 8.01822 30.749 12.4722Z" fill="#ffffff"/>
</g>
</g>
</g>
</g>
</svg>
