<svg xmlns="http://www.w3.org/2000/svg" xmlns:xlink="http://www.w3.org/1999/xlink" xmlns:inkscape="http://www.inkscape.org/namespaces/inkscape" version="1.1" width="226.908" height="217.843" viewBox="0 0 226.908 217.843">
<path transform="matrix(1,0,0,-1,31.1294,108.897)" d="M-2.29899 70.3251C-5.05846 69.0554-6.26616 65.7891-4.99647 63.0296-3.72677 60.2702-.460484 59.0625 2.29899 60.3322L0 65.3286-2.29899 70.3251ZM81.5 102.829 83.848 107.802 81.5298 108.897 79.201 107.825 81.5 102.829ZM180 56.3286 182.243 51.3069 193.176 56.1905 182.348 61.3023 180 56.3286ZM79.2568 17.3504C76.4833 16.1115 75.2394 12.8588 76.4782 10.0854 77.7171 7.31196 80.9698 6.06797 83.7432 7.30686L81.5 12.3286 79.2568 17.3504ZM0 65.3286 2.29899 60.3322 83.799 97.8321 81.5 102.829 79.201 107.825-2.29899 70.3251 0 65.3286ZM81.5 102.829 79.152 97.855 177.652 51.355 180 56.3286 182.348 61.3023 83.848 107.802 81.5 102.829ZM180 56.3286 177.757 61.3504 79.2568 17.3504 81.5 12.3286 83.7432 7.30686 182.243 51.3069 180 56.3286Z" fill="#ffffff"/>
<path transform="matrix(1,0,0,-1,13.6294,109.601009)" d="M19.7867 61.0306C22.5493 62.2935 23.765 65.5568 22.5021 68.3194 21.2392 71.082 17.9759 72.2977 15.2133 71.0348L17.5 66.0327 19.7867 61.0306ZM0 58.0327-2.28668 63.0348-13.1441 58.0714-2.31611 53.0442 0 58.0327ZM95.6839 7.54417C98.439 6.26501 101.709 7.4615 102.989 10.2166 104.268 12.9717 103.071 16.2421 100.316 17.5213L98 12.5327 95.6839 7.54417ZM17.5 66.0327 15.2133 71.0348-2.28668 63.0348 0 58.0327 2.28668 53.0306 19.7867 61.0306 17.5 66.0327ZM0 58.0327-2.31611 53.0442 95.6839 7.54417 98 12.5327 100.316 17.5213 2.31611 63.0213 0 58.0327Z" fill="#ffffff"/>
<path transform="matrix(1,0,0,-1,13.1294,167.10721)" d="M58.8355 81.0596C61.5856 82.3494 62.7694 85.6245 61.4795 88.3746 60.1896 91.1247 56.9146 92.3084 54.1645 91.0186L56.5 86.0391 58.8355 81.0596ZM0 59.5391-2.33551 64.5186-12.9412 59.5442-2.33949 54.5614 0 59.5391ZM97.6605 7.56143C100.41 6.26937 103.686 7.45051 104.978 10.1996 106.27 12.9486 105.089 16.2246 102.339 17.5167L100 12.5391 97.6605 7.56143ZM56.5 86.0391 54.1645 91.0186-2.33551 64.5186 0 59.5391 2.33551 54.5596 58.8355 81.0596 56.5 86.0391ZM0 59.5391-2.33949 54.5614 97.6605 7.56143 100 12.5391 102.339 17.5167 2.33949 64.5167 0 59.5391Z" fill="#ffffff"/>
<path transform="matrix(1,0,0,-1,114.129,167.61191)" d="M43.8745 93.0047C41.1346 94.3161 37.8504 93.1581 36.539 90.4182 35.2276 87.6783 36.3856 84.3941 39.1255 83.0827L41.5 88.0437 43.8745 93.0047ZM100 60.0437 102.36 55.0757 112.779 60.0248 102.375 65.0047 100 60.0437ZM-2.35981 17.5117C-5.10358 16.2084-6.27132 12.9276-4.96803 10.1839-3.66474 7.44012-.383953 6.27238 2.35981 7.57568L0 12.5437-2.35981 17.5117ZM41.5 88.0437 39.1255 83.0827 97.6255 55.0827 100 60.0437 102.375 65.0047 43.8745 93.0047 41.5 88.0437ZM100 60.0437 97.6402 65.0117-2.35981 17.5117 0 12.5437 2.35981 7.57568 102.36 55.0757 100 60.0437Z" fill="#ffffff"/>
<path transform="matrix(1,0,0,-1,12.6294,223.61486)" d="M59.4597 83.1273C62.1766 84.4858 63.2778 87.7895 61.9193 90.5064 60.5609 93.2233 57.2572 94.3245 54.5403 92.966L57 88.0467 59.4597 83.1273ZM0 59.5467-2.45967 64.466-12.6293 59.3812-2.32994 54.5646 0 59.5467ZM98.1701 7.56458C100.922 6.27779 104.195 7.46521 105.482 10.2168 106.769 12.9683 105.581 16.242 102.83 17.5288L100.5 12.5467 98.1701 7.56458ZM57 88.0467 54.5403 92.966-2.45967 64.466 0 59.5467 2.45967 54.6273 59.4597 83.1273 57 88.0467ZM0 59.5467-2.32994 54.5646 98.1701 7.56458 100.5 12.5467 102.83 17.5288 2.32994 64.5288 0 59.5467Z" fill="#ffffff"/>
<path transform="matrix(1,0,0,-1,114.629,224.11534)" d="M43.373 93.0089C40.6327 94.3195 37.3488 93.1605 36.0383 90.4202 34.7277 87.6799 35.8867 84.396 38.627 83.0854L41 88.0472 43.373 93.0089ZM98.5 60.5472 100.909 55.603 111.15 60.5936 100.873 65.5089 98.5 60.5472ZM-2.40935 17.4914C-5.13995 16.1607-6.27484 12.8684-4.94419 10.1378-3.61354 7.40723-.321249 6.27234 2.40935 7.60299L0 12.5472-2.40935 17.4914ZM41 88.0472 38.627 83.0854 96.127 55.5854 98.5 60.5472 100.873 65.5089 43.373 93.0089 41 88.0472ZM98.5 60.5472 96.0906 65.4914-2.40935 17.4914 0 12.5472 2.40935 7.60299 100.909 55.603 98.5 60.5472Z" fill="#ffffff"/>
</svg>
