<svg xmlns="http://www.w3.org/2000/svg" xmlns:xlink="http://www.w3.org/1999/xlink" xmlns:inkscape="http://www.inkscape.org/namespaces/inkscape" version="1.1" width="204" height="192.5" viewBox="0 0 204 192.5">
<path transform="matrix(1,0,0,-1,5.5,110)" d="M192.5 104.5H198V110H192.5V104.5ZM0 104.5V110H-5.5V104.5H0ZM0 50H-5.5V48.672L-4.894 47.4903 0 50ZM20 11 15.106 8.49026 16.6395 5.5H20V11ZM168.5 11V5.5H171.573L173.184 8.11746 168.5 11ZM192.5 50 197.184 47.1175 198 48.4433V50H192.5ZM192.5 104.5V110H0V104.5 99H192.5V104.5ZM0 104.5H-5.5V50H0 5.5V104.5H0ZM0 50-4.894 47.4903 15.106 8.49026 20 11 24.894 13.5097 4.894 52.5097 0 50ZM20 11V5.5H168.5V11 16.5H20V11ZM168.5 11 173.184 8.11746 197.184 47.1175 192.5 50 187.816 52.8825 163.816 13.8825 168.5 11ZM192.5 50H198V104.5H192.5 187V50H192.5Z" fill="#ffffff"/>
<path transform="matrix(1,0,0,-1,6,67.5)" d="M192.5 5.5C195.538 5.5 198 7.96243 198 11 198 14.0376 195.538 16.5 192.5 16.5V11 5.5ZM0 16.5C-3.03757 16.5-5.5 14.0376-5.5 11-5.5 7.96243-3.03757 5.5 0 5.5V11 16.5ZM192.5 11V16.5H0V11 5.5H192.5V11Z" fill="#ffffff"/>
<path transform="matrix(1,0,0,-1,136,149.5)" d="M8.5 17V17C13.1944 17 17 13.1944 17 8.5 17 3.80558 13.1944 0 8.5 0 3.80558 0 0 3.80558 0 8.5 0 13.1944 3.80558 17 8.5 17Z" fill="#ffffff"/>
<path transform="matrix(1,0,0,-1,93.5,149.5)" d="M0 8.5C0 13.1944 3.80558 17 8.5 17 13.1944 17 17 13.1944 17 8.5 17 3.80558 13.1944 0 8.5 0 3.80558 0 0 3.80558 0 8.5Z" fill="#ffffff"/>
<path transform="matrix(1,0,0,-1,51,149.5)" d="M0 8.5C0 13.1944 3.80558 17 8.5 17 13.1944 17 17 13.1944 17 8.5 17 3.80558 13.1944 0 8.5 0 3.80558 0 0 3.80558 0 8.5Z" fill="#ffffff"/>
<path transform="matrix(1,0,0,-1,173.5,192.5)" d="M8.5 17V17C13.1944 17 17 13.1944 17 8.5 17 3.80558 13.1944 0 8.5 0 3.80558 0 0 3.80558 0 8.5 0 13.1944 3.80558 17 8.5 17Z" fill="#ffffff"/>
<path transform="matrix(1,0,0,-1,93,192.5)" d="M0 8.5C0 13.1944 3.80558 17 8.5 17 13.1944 17 17 13.1944 17 8.5 17 3.80558 13.1944 0 8.5 0 3.80558 0 0 3.80558 0 8.5Z" fill="#ffffff"/>
<path transform="matrix(1,0,0,-1,12.5,192.5)" d="M0 8.5C0 13.1944 3.80558 17 8.5 17 13.1944 17 17 13.1944 17 8.5 17 3.80558 13.1944 0 8.5 0 3.80558 0 0 3.80558 0 8.5Z" fill="#ffffff"/>
</svg>
