<svg xmlns="http://www.w3.org/2000/svg" xmlns:xlink="http://www.w3.org/1999/xlink" xmlns:inkscape="http://www.inkscape.org/namespaces/inkscape" version="1.1" width="204" height="202" viewBox="0 0 204 202">
<path transform="matrix(1,0,0,-1,8.5,193)" d="M0 187.5V193H-5.5V187.5H0ZM187 187.5H192.5V193H187V187.5ZM187 11V5.5H192.5V11H187ZM0 11H-5.5V5.5H0V11ZM0 187.5V182H187V187.5 193H0V187.5ZM187 187.5H181.5V11H187 192.5V187.5H187ZM187 11V16.5H0V11 5.5H187V11ZM0 11H5.5V187.5H0-5.5V11H0Z" fill="#ffffff"/>
<path transform="matrix(1,0,0,-1,102,190.5)" d="M5.5 184.5C5.5 187.538 3.03757 190 0 190-3.03757 190-5.5 187.538-5.5 184.5H0 5.5ZM-5.5 11C-5.5 7.96243-3.03757 5.5 0 5.5 3.03757 5.5 5.5 7.96243 5.5 11H0-5.5ZM0 184.5H-5.5V11H0 5.5V184.5H0Z" fill="#ffffff"/>
<path transform="matrix(1,0,0,-1,118.5,116.5659)" d="M2.63369 26.3943C-.032979 27.8489-3.37388 26.8663-4.82843 24.1996-6.28297 21.5329-5.30035 18.192-2.63369 16.7375L0 21.5659 2.63369 26.3943ZM13.8663 7.73749C16.533 6.28295 19.8739 7.26557 21.3284 9.93223 22.783 12.5989 21.8004 15.9398 19.1337 17.3943L16.5 12.5659 13.8663 7.73749ZM0 21.5659-2.63369 16.7375 13.8663 7.73749 16.5 12.5659 19.1337 17.3943 2.63369 26.3943 0 21.5659Z" fill="#ffffff"/>
<path transform="matrix(1,0,0,-1,5.5,207.5)" d="M0 16.5C-3.03757 16.5-5.5 14.0376-5.5 11-5.5 7.96243-3.03757 5.5 0 5.5V11 16.5ZM193 5.5C196.038 5.5 198.5 7.96243 198.5 11 198.5 14.0376 196.038 16.5 193 16.5V11 5.5ZM0 11V5.5H193V11 16.5H0V11Z" fill="#ffffff"/>
</svg>
